<svg xmlns="http://www.w3.org/2000/svg" viewBox="0 0 100 120" width="100" height="120">
  <path d="M50 20v80" stroke="#22c55e" stroke-width="4" stroke-linecap="round" />
  <path d="M40 10c0 0 0 20 10 30 10-10 10-30 10-30" fill="#22c55e" />
  <path d="M60 30c5-5 10-5 15 0s5 10 0 15-10 5-15 0" fill="#f59e0b" />
  <path d="M40 30c-5-5-10-5-15 0s-5 10 0 15 10 5 15 0" fill="#f59e0b" />
  <ellipse cx="60" cy="45" rx="10" ry="15" fill="#f59e0b" />
  <ellipse cx="40" cy="60" rx="8" ry="12" fill="#f59e0b" />
  <path d="M60 45c0 0 5 5 10 5-5 5-10 10-10 10" fill="#eab308" stroke="#eab308" />
  <path d="M40 60c0 0 5 5 8 5-4 4-8 7-8 7" fill="#eab308" stroke="#eab308" />
</svg>